<?xml version="1.0" encoding="UTF-8" standalone="no"?>
<!-- Generator: Adobe Illustrator 21.0.0, SVG Export Plug-In . SVG Version: 6.00 Build 0)  -->

<svg
   xmlns:dc="http://purl.org/dc/elements/1.1/"
   xmlns:cc="http://creativecommons.org/ns#"
   xmlns:rdf="http://www.w3.org/1999/02/22-rdf-syntax-ns#"
   xmlns:svg="http://www.w3.org/2000/svg"
   xmlns="http://www.w3.org/2000/svg"
   xmlns:sodipodi="http://sodipodi.sourceforge.net/DTD/sodipodi-0.dtd"
   xmlns:inkscape="http://www.inkscape.org/namespaces/inkscape"
   version="1.1"
   id="Ebene_1"
   x="0px"
   y="0px"
   viewBox="0 0 187.99999 25.299999"
   xml:space="preserve"
   inkscape:version="0.91 r13725"
   sodipodi:docname="SAB_Logo_Bauprodukte_de.svg"
   width="188"
   height="25.299999"><metadata
   id="metadata65"><rdf:RDF><cc:Work
       rdf:about=""><dc:format>image/svg+xml</dc:format><dc:type
         rdf:resource="http://purl.org/dc/dcmitype/StillImage" /><dc:title></dc:title></cc:Work></rdf:RDF></metadata><defs
   id="defs63" /><sodipodi:namedview
   pagecolor="#ffffff"
   bordercolor="#666666"
   borderopacity="1"
   objecttolerance="10"
   gridtolerance="10"
   guidetolerance="10"
   inkscape:pageopacity="0"
   inkscape:pageshadow="2"
   inkscape:window-width="1920"
   inkscape:window-height="1018"
   id="namedview61"
   showgrid="false"
   fit-margin-top="0"
   fit-margin-left="0"
   fit-margin-right="0"
   fit-margin-bottom="0"
   inkscape:zoom="1.573631"
   inkscape:cx="94.050003"
   inkscape:cy="1.4499996"
   inkscape:window-x="-8"
   inkscape:window-y="-8"
   inkscape:window-maximized="1"
   inkscape:current-layer="g7" />
<style
   type="text/css"
   id="style3">
	.st0{fill:#009FE3;}
	.st1{fill-rule:evenodd;clip-rule:evenodd;fill:#009FE3;}
</style>
<g
   id="g5">
	<g
   id="g7">
		
		
		
		
		
		
		
		
		
		
		
		<path
   style="fill:#009fe3"
   d="M 49.9,7.5 C 49.7,5 48.4,3.8 45.9,3.8 44,3.8 42,4.8 42,6.9 c 0,2.6 2.4,2.9 4.4,3.4 3.7,0.9 9.2,2 9.2,6.9 0,6 -5.3,8.1 -10.5,8.1 -5.6,0 -9.5,-2.2 -9.3,-8.3 l 5.3,0 c -0.2,2.7 1.3,4.5 4.1,4.5 2.1,0 4.9,-0.6 4.9,-3.2 0,-2.9 -3.5,-3.1 -5.6,-3.6 -3.4,-0.8 -8.1,-2.4 -8.1,-6.7 0,-5.6 5.1,-8 10.1,-8 4.7,0 8.4,2.6 8.4,7.4 l -5,0 z"
   id="path31"
   inkscape:connector-curvature="0" />
		<rect
   x="0"
   y="23.299999"
   style="fill:#009fe3"
   width="30.299999"
   height="1.4"
   id="rect33" />
		<rect
   x="0"
   y="17.6"
   style="fill:#009fe3"
   width="30.299999"
   height="1.4"
   id="rect35" />
		<rect
   x="0"
   y="11.9"
   style="fill:#009fe3"
   width="30.299999"
   height="1.4"
   id="rect37" />
		<rect
   x="0"
   y="6.1999998"
   style="fill:#009fe3"
   width="30.299999"
   height="1.4"
   id="rect39" />
		<rect
   x="0"
   y="0.5"
   style="fill:#009fe3"
   width="30.299999"
   height="1.4"
   id="rect41" />
		<rect
   x="157.7"
   y="17.6"
   style="fill:#009fe3"
   width="30.299999"
   height="1.4"
   id="rect43" />
		<rect
   x="157.7"
   y="11.9"
   style="fill:#009fe3"
   width="30.299999"
   height="1.4"
   id="rect45" />
		<rect
   x="157.7"
   y="6.1999998"
   style="fill:#009fe3"
   width="30.299999"
   height="1.4"
   id="rect47" />
		<path
   style="fill:#009fe3"
   d="m 141.7,15.9 0,-4 10,0 0,12.1 c -1.8,0.6 -3.6,0.9 -5.5,1.1 -1.2,0.1 -2.4,0.2 -5.6,0.2 -4.8,0 -11.4,-3 -11.4,-12.7 0,-9.6 6.6,-12.6 11.4,-12.6 7,0 11.4,2.1 11.4,7.9 l -5.6,0 c 0,-3.1 -2,-4.1 -4.9,-4.1 -4.6,0 -6.8,3.4 -6.8,8.9 0,5.5 2.2,8.9 6.8,8.9 2.1,0 3.5,-0.3 4.9,-0.5 l 0,-5.1 -4.7,0 z"
   id="path49"
   inkscape:connector-curvature="0" />
		<path
   class="st1"
   style="clip-rule:evenodd;fill:#009fe3;fill-rule:evenodd"
   d="m 62.3,24.8 1.8,-5.2 9.6,0 1.8,5.2 5.3,0 -8.5,-24.3 -6.2,0 -8.8,24.3 5,0 z m 3.1,-9.2 3.6,-10.3 0.1,0 3.3,10.4 -7,0 z"
   id="path51"
   inkscape:connector-curvature="0" />
		<path
   class="st1"
   style="clip-rule:evenodd;fill:#009fe3;fill-rule:evenodd"
   d="m 88.8,20.8 0,-6.5 4.1,0 c 2.5,0 4.1,0.4 4.1,3.2 0,2.8 -1.7,3.2 -4.1,3.2 l -4.1,0 z m 0,-10.5 0,-5.7 4.1,0 c 2.2,0 3.4,0.9 3.4,2.9 0,2 -1.2,2.9 -3.4,2.9 l -4.1,0 z m 4,14.5 c 3.7,0.3 9.8,-1.5 9.8,-6.3 0,-3.6 -2.3,-5.7 -5.4,-6.3 l 0,-0.1 c 2.4,-0.8 4.3,-2.7 4.3,-5.3 0,-4.8 -4.4,-6.6 -8.8,-6.3 l -9.1,0 0,24.3 9.2,0 z"
   id="path53"
   inkscape:connector-curvature="0" />
		<path
   class="st1"
   style="clip-rule:evenodd;fill:#009fe3;fill-rule:evenodd"
   d="m 109.1,24.8 1.8,-5.2 9.6,0 1.8,5.2 5.3,0 -8.5,-24.3 -6.2,0 -8.8,24.3 5,0 z m 3.2,-9.2 3.6,-10.4 0.1,0 3.3,10.4 -7,0 z"
   id="path55"
   inkscape:connector-curvature="0" />
		<rect
   x="157.7"
   y="23.299999"
   style="fill:#009fe3"
   width="30.299999"
   height="1.4"
   id="rect57" />
		<rect
   x="157.7"
   y="0.5"
   style="fill:#009fe3"
   width="30.299999"
   height="1.4"
   id="rect59" />
	</g>
</g>
</svg>