<?xml version="1.0" encoding="utf-8"?>
<!-- Generator: Adobe Illustrator 24.0.3, SVG Export Plug-In . SVG Version: 6.00 Build 0)  -->
<svg version="1.1" id="Ebene_1" xmlns="http://www.w3.org/2000/svg" xmlns:xlink="http://www.w3.org/1999/xlink" x="0px" y="0px"
	 width="113.385826px" height="17.007622px" viewBox="0 0 113.385826 17.007622" enable-background="new 0 0 113.385826 17.007622"
	 xml:space="preserve" fill="#ffffff">
<g>
	<path d="M24.852869,9.979671l-2.303137-0.555228C21.92771,9.26662,21.469593,9.04805,21.174314,8.768771
		c-0.295244-0.279279-0.443188-0.643537-0.443188-1.09281c0-0.573986,0.218569-1.025443,0.655706-1.352187
		c0.437103-0.326744,1.037041-0.490116,1.800888-0.490116c0.543093,0,1.01388,0.094931,1.411285,0.283682
		c0.397369,0.188751,0.804689,0.50447,1.222498,0.944901c0.25168,0.25168,0.444298,0.419456,0.578388,0.502251
		c0.134127,0.08276,0.291414,0.123603,0.472469,0.123603c0.259949,0,0.468567-0.075064,0.625853-0.224082
		c0.157324-0.150092,0.236254-0.354307,0.236254-0.614829c0-0.306877-0.108175-0.617048-0.324562-0.932731
		c-0.216887-0.314609-0.509947-0.598291-0.879753-0.849971c-0.905704-0.598291-1.99243-0.897401-3.259636-0.897401
		c-1.378139,0-2.478107,0.330038-3.301018,0.992332c-0.82291,0.66122-1.234097,1.543193-1.234097,2.644808
		c0,1.731909,1.066858,2.842402,3.200575,3.330298l2.361664,0.543094c0.543631,0.134664,0.966415,0.358746,1.269962,0.673319
		c0.303013,0.31572,0.45425,0.688819,0.45425,1.122628c0,0.573986-0.234034,1.028771-0.7026,1.363212
		c-0.468567,0.335586-1.09997,0.502251-1.895281,0.502251c-1.236315,0-2.231976-0.437102-2.988127-1.311343
		c-0.362038-0.448163-0.692648-0.672245-0.991793-0.672245c-0.275951,0-0.4923,0.080576-0.649588,0.241729
		c-0.15786,0.161189-0.236252,0.384161-0.236252,0.666733c0,0.756115,0.460871,1.398578,1.38204,1.925097
		c0.960329,0.544205,2.08625,0.815752,3.377192,0.815752c1.448799,0,2.594551-0.333366,3.43679-0.997881
		c0.842239-0.665623,1.263914-1.565243,1.263914-2.698895c0-0.881972-0.258303-1.592841-0.773798-2.131533
		C26.728857,10.638673,25.931326,10.239084,24.852869,9.979671z"/>
	<path d="M44.813969-0.000126c-0.36261,0-0.667271,0.12031-0.915619,0.359855c-0.247814,0.240619-0.37199,0.545277-0.37199,0.916158
		c0,0.369807,0.12582,0.678867,0.378075,0.926145c0.251644,0.248351,0.555229,0.37199,0.909534,0.37199
		c0.385269,0,0.704285-0.123639,0.956501-0.37199c0.251678-0.247277,0.378075-0.556338,0.378075-0.926145
		c0-0.37088-0.126396-0.675538-0.378075-0.916158C45.518253,0.120183,45.199238-0.000126,44.813969-0.000126z"/>
	<path d="M44.837166,4.262903c-0.306877,0-0.554691,0.097114-0.74398,0.290304
		C43.904434,4.745287,43.81004,5.02675,43.81004,5.39763v10.476465c0,0.362075,0.094395,0.641316,0.283146,0.83891
		c0.189289,0.196484,0.433235,0.294743,0.73238,0.294743c0.299149,0,0.543095-0.096041,0.732418-0.28923
		c0.188751-0.193153,0.283112-0.474651,0.283112-0.844422V5.39763c0-0.362039-0.092712-0.642427-0.277599-0.838911
		C45.378613,4.362236,45.136311,4.262903,44.837166,4.262903z"/>
	<path d="M54.850361,9.979671l-2.303173-0.555228c-0.622025-0.157824-1.080105-0.376393-1.375381-0.655672
		c-0.29528-0.279279-0.443188-0.643537-0.443188-1.09281c0-0.573986,0.218567-1.025443,0.65567-1.352187
		c0.437138-0.326744,1.037075-0.490116,1.800922-0.490116c0.543095,0,1.013882,0.094931,1.411251,0.283682
		c0.397404,0.188751,0.804726,0.50447,1.222496,0.944901c0.251682,0.25168,0.444298,0.419456,0.578426,0.502251
		c0.134125,0.08276,0.291412,0.123603,0.472431,0.123603c0.259987,0,0.468605-0.075064,0.625889-0.224082
		c0.157288-0.150092,0.236217-0.354307,0.236217-0.614829c0-0.306877-0.108173-0.617048-0.324524-0.932731
		c-0.216888-0.314609-0.509983-0.598291-0.879753-0.849971c-0.905704-0.598291-1.992432-0.897401-3.25964-0.897401
		c-1.378136,0-2.478142,0.330038-3.301052,0.992332c-0.82291,0.66122-1.234097,1.543193-1.234097,2.644808
		c0,1.731909,1.066895,2.842402,3.200611,3.330298l2.361664,0.543094c0.543633,0.134664,0.966415,0.358746,1.269962,0.673319
		c0.303013,0.31572,0.454212,0.688819,0.454212,1.122628c0,0.573986-0.233994,1.028771-0.702564,1.363212
		c-0.468601,0.335586-1.100002,0.502251-1.895313,0.502251c-1.236282,0-2.231976-0.437102-2.988091-1.311343
		c-0.362076-0.448163-0.69265-0.672245-0.991795-0.672245c-0.275951,0-0.492336,0.080576-0.649624,0.241729
		c-0.15786,0.161189-0.236214,0.384161-0.236214,0.666733c0,0.756115,0.460869,1.398578,1.382004,1.925097
		c0.960327,0.544205,2.08625,0.815752,3.37719,0.815752c1.448799,0,2.594585-0.333366,3.436825-0.997881
		c0.842239-0.665623,1.263882-1.565243,1.263882-2.698895c0-0.881972-0.258305-1.592841-0.773766-2.131533
		C56.726345,10.638673,55.928818,10.239084,54.850361,9.979671z"/>
	<path d="M66.24556,9.979671l-2.303173-0.555228c-0.622025-0.157824-1.080101-0.376393-1.375381-0.655672
		s-0.443188-0.643537-0.443188-1.09281c0-0.573986,0.218567-1.025443,0.65567-1.352187
		c0.437138-0.326744,1.037075-0.490116,1.800926-0.490116c0.543091,0,1.013878,0.094931,1.411247,0.283682
		c0.397408,0.188751,0.804726,0.50447,1.222496,0.944901c0.251678,0.25168,0.444298,0.419456,0.578423,0.502251
		c0.134132,0.08276,0.29142,0.123603,0.472435,0.123603c0.259949,0,0.468605-0.075064,0.625893-0.224082
		c0.157288-0.150092,0.236214-0.354307,0.236214-0.614829c0-0.306877-0.108177-0.617048-0.324524-0.932731
		c-0.216888-0.314609-0.509979-0.598291-0.879753-0.849971c-0.905708-0.598291-1.992432-0.897401-3.259636-0.897401
		c-1.378139,0-2.478146,0.330038-3.301056,0.992332c-0.822906,0.66122-1.234093,1.543193-1.234093,2.644808
		c0,1.731909,1.066856,2.842402,3.200607,3.330298l2.361664,0.543094c0.543633,0.134664,0.966415,0.358746,1.269966,0.673319
		c0.303009,0.31572,0.454208,0.688819,0.454208,1.122628c0,0.573986-0.233994,1.028771-0.702599,1.363212
		c-0.468567,0.335586-1.099968,0.502251-1.895279,0.502251c-1.236279,0-2.231976-0.437102-2.988091-1.311343
		c-0.362076-0.448163-0.69265-0.672245-0.991795-0.672245c-0.275948,0-0.492336,0.080576-0.64962,0.241729
		c-0.15786,0.161189-0.236217,0.384161-0.236217,0.666733c0,0.756115,0.460869,1.398578,1.382004,1.925097
		c0.960331,0.544205,2.08625,0.815752,3.37719,0.815752c1.448799,0,2.594589-0.333366,3.436829-0.997881
		c0.842201-0.665623,1.263878-1.565243,1.263878-2.698895c0-0.881972-0.258301-1.592841-0.773796-2.131533
		C68.121544,10.638673,67.324013,10.239084,66.24556,9.979671z"/>
	<path d="M76.743324,4.169082c-1.527695,0-2.773392,0.507764-3.738159,1.523291
		C72.04097,6.7079,71.558586,8.019279,71.558586,9.625365v1.960392c0,1.676747,0.480164,2.999151,1.441071,3.968323
		c0.960327,0.968062,2.275002,1.452666,3.944588,1.452666c0.834473,0,1.603867-0.12253,2.308647-0.366478
		c0.704247-0.243948,1.253433-0.57513,1.647507-0.992367c0.385773-0.401809,0.578384-0.794775,0.578384-1.181119
		c0-0.243948-0.074486-0.448163-0.224045-0.613719c-0.14959-0.165591-0.338875-0.248387-0.566826-0.248387
		c-0.173325,0-0.322876,0.039769-0.448738,0.118127c-0.126358,0.079467-0.350441,0.268218-0.673317,0.567363
		c-0.661217,0.638024-1.503998,0.955927-2.527252,0.955927c-1.062996,0-1.897499-0.312389-2.504059-0.938243
		c-0.606026-0.62589-0.913437-1.478045-0.921173-2.5565v-0.65016h7.06237c0.433273,0,0.726334-0.118126,0.879791-0.354342
		c0.153954-0.236217,0.230698-0.692112,0.230698-1.369869c0-1.527693-0.470779-2.777253-1.411278-3.749753
		C79.433952,4.65476,78.223587,4.169082,76.743324,4.169082z M79.766747,9.447639h-6.153374v-0.03533
		c0-1.038723,0.291412-1.880927,0.874245-2.526683c0.582291-0.645756,1.34227-0.969172,2.279442-0.969172
		c0.912865,0,1.641411,0.315683,2.184509,0.944866c0.543625,0.630292,0.815178,1.480264,0.815178,2.550988V9.447639z"/>
	<path d="M88.973534,15.199738c-0.062897,0-0.181023,0.005512-0.354309,0.017683
		c-0.173325,0.011025-0.319016,0.017648-0.437141,0.017648c-0.574554,0-0.964195-0.12031-1.168945-0.360965
		c-0.204788-0.23951-0.306877-0.689893-0.306877-1.352187V6.105206h1.652977c0.291412,0,0.521584-0.073954,0.691002-0.224082
		c0.169456-0.149018,0.253899-0.357636,0.253899-0.62589c0-0.267108-0.084442-0.477945-0.253899-0.631366
		c-0.169418-0.153457-0.39959-0.230704-0.691002-0.230704H86.69413V2.34994c0-0.354343-0.08831-0.629183-0.265503-0.826776
		c-0.177155-0.196483-0.427185-0.294743-0.750061-0.294743c-0.315147,0-0.560745,0.098259-0.7379,0.294743
		c-0.177185,0.197593-0.266029,0.472433-0.266029,0.826776L84.66304,13.498721c0,1.283781,0.234032,2.18451,0.702599,2.704408
		c0.468025,0.519899,1.269424,0.779312,2.403076,0.779312c0.645721,0,1.134193-0.082796,1.464767-0.247242
		c0.346069-0.165592,0.519356-0.426113,0.519356-0.78042c0-0.227411-0.072838-0.410649-0.218529-0.548607
		C89.38858,15.268179,89.202049,15.199738,88.973534,15.199738z"/>
	<path d="M96.400444,4.169082c-1.527725,0-2.773422,0.507764-3.738152,1.523291
		C91.69809,6.7079,91.215706,8.019279,91.215706,9.625365v1.960392c0,1.676747,0.480171,2.999151,1.441071,3.968323
		c0.960327,0.968062,2.275002,1.452666,3.944557,1.452666c0.834503,0,1.603867-0.12253,2.308685-0.366478
		c0.704247-0.243948,1.253426-0.57513,1.647461-0.992367c0.385811-0.401809,0.57843-0.794775,0.57843-1.181119
		c0-0.243948-0.074493-0.448163-0.224083-0.613719c-0.149559-0.165591-0.338882-0.248387-0.566826-0.248387
		c-0.173286,0-0.322884,0.039769-0.4487,0.118127c-0.126396,0.079467-0.350479,0.268218-0.673355,0.567363
		c-0.661186,0.638024-1.50396,0.955927-2.527222,0.955927c-1.062996,0-1.897499-0.312389-2.504059-0.938243
		c-0.606026-0.62589-0.913437-1.478045-0.921173-2.5565v-0.65016h7.06237c0.433273,0,0.726334-0.118126,0.879753-0.354342
		c0.153992-0.236217,0.230705-0.692112,0.230705-1.369869c0-1.527693-0.470787-2.777253-1.411247-3.749753
		C99.091034,4.65476,97.880669,4.169082,96.400444,4.169082z M99.423866,9.447639h-6.153374v-0.03533
		c0-1.038723,0.29142-1.880927,0.874245-2.526683c0.582291-0.645756,1.34227-0.969172,2.279442-0.969172
		c0.912865,0,1.641411,0.315683,2.184471,0.944866c0.543671,0.630292,0.815216,1.480264,0.815216,2.550988V9.447639z"/>
	<path d="M113.127716,13.451256c-0.169426-0.15675-0.375854-0.236217-0.619804-0.236217
		c-0.165558,0-0.320656,0.045246-0.466347,0.135774c-0.145729,0.090528-0.250038,0.171103-0.312965,0.242839
		c-0.063461,0.070661-0.149551,0.176617-0.259949,0.317903c-0.638023,0.858812-1.50396,1.288183-2.598419,1.288183
		c-1.015564,0-1.78714-0.333366-2.314766-0.997879c-0.5271-0.665587-0.790909-1.54978-0.790909-2.651396V9.613194
		c0-1.101616,0.265495-1.983589,0.796989-2.645883c0.531494-0.66122,1.296989-0.991257,2.297089-0.991257
		c1.09446,0,1.94883,0.429406,2.562553,1.287074c0.11039,0.150127,0.1987,0.263815,0.266029,0.342208
		c0.066795,0.079467,0.171104,0.157824,0.312927,0.236217c0.141861,0.079467,0.299149,0.11809,0.472473,0.11809
		c0.275414,0,0.490082-0.088308,0.643532-0.265998c0.153427-0.176617,0.230133-0.402918,0.230133-0.678867
		c0-0.392966-0.149551-0.777127-0.4487-1.1513c-0.299141-0.374209-0.665619-0.691002-1.09832-0.950415
		c-0.826775-0.495628-1.814705-0.74398-2.964363-0.74398c-1.606079,0-2.863914,0.482348-3.772911,1.446007
		c-0.909569,0.964768-1.364357,2.261794-1.364357,3.892149v2.14918c0,1.64582,0.456436,2.948357,1.369873,3.908687
		c0.913399,0.961439,2.181183,1.441641,3.802727,1.441641c1.118195,0,2.094521-0.24395,2.929031-0.732956
		c0.472435-0.267143,0.85437-0.590559,1.145782-0.968061c0.290878-0.377539,0.436569-0.763883,0.436569-1.157958
		C113.381615,13.840929,113.297173,13.609116,113.127716,13.451256z"/>
	<path d="M39.533588,4.262903c-0.641964,0-1.044594,0.42103-1.044594,1.099647v6.599637
		c0,2.129849-0.999847,3.253265-2.972126,3.253265c-1.974102,0-2.979786-1.123416-2.979786-3.253265V5.36255
		c0-0.678617-0.404457-1.099647-1.046419-1.099647c-0.64196,0-0.990719,0.42103-0.990719,1.099647v6.669975
		c0,4.268147,2.473204,4.96205,5.016924,4.96205c2.541897,0,5.015099-0.693903,5.015099-4.96205V5.36255
		C40.531967,4.683933,40.175549,4.262903,39.533588,4.262903z"/>
	<path d="M12.828022,5.63041c-0.021406,0.038373-0.53819,0.946727-2.123586,1.354442
		C8.370192,7.585756,7.509553,8.903399,7.419205,9.051594c-0.254687,0.417451-0.123459,0.954102,0.288944,1.216592
		c0.147192,0.093821,0.312318,0.138244,0.475905,0.138244c0.294385,0,0.58451-0.144507,0.758191-0.406175
		c0.023375-0.034865,0.586514-0.859887,2.209281-1.277338c2.373978-0.610641,3.186328-2.101965,3.271235-2.269812
		c0.220395-0.436745,0.04632-0.961905-0.386344-1.190318C13.604934,5.034589,13.064418,5.202042,12.828022,5.63041z"/>
	<path d="M15.308707,7.46541c-0.433058-0.228019-0.972787-0.060745-1.208789,0.367444
		c-0.021441,0.038552-0.53819,0.946692-2.123586,1.354621C9.642088,9.7882,8.781414,11.105844,8.691066,11.254003
		c-0.254687,0.417307-0.123425,0.954137,0.28898,1.216592c0.147192,0.093856,0.311924,0.138243,0.475869,0.138243
		c0.29442,0,0.584545-0.144471,0.758226-0.406175c0.023375-0.034829,0.586478-0.859672,2.209246-1.277122
		c2.373978-0.61082,3.186363-2.101787,3.271235-2.269812C15.915052,8.218984,15.740977,7.694002,15.308707,7.46541z"/>
	<path d="M6.379802,7.96759c0.147192,0.093856,0.311924,0.138243,0.475869,0.138243c0.294421,0,0.584546-0.144472,0.758227-0.406175
		c0.023375-0.034829,0.586478-0.859672,2.209246-1.277122c2.374013-0.610641,3.186363-2.101965,3.271235-2.269812
		c0.22043-0.436745,0.046356-0.961905-0.386308-1.190318c-0.431483-0.228771-0.972393-0.060566-1.208395,0.367623
		c-0.021441,0.038373-0.53819,0.946728-2.123586,1.354441C7.041845,5.285195,6.181171,6.602839,6.090823,6.750998
		C5.836135,7.16827,5.967399,7.705135,6.379802,7.96759z"/>
	<path d="M11.495237,12.157381c-0.472755,0-0.856307,0.383337-0.856307,0.856271v1.842482
		c0,0.122816-0.099978,0.222614-0.222614,0.222614H1.939369c-0.122636,0-0.222614-0.099798-0.222614-0.222614V6.379187
		c0-0.122636,0.099978-0.222435,0.222614-0.222435h3.460667c0.472719,0,0.856271-0.383337,0.856271-0.856271
		S5.872755,4.444209,5.400035,4.444209H1.939369c-1.067001,0-1.935157,0.867976-1.935157,1.934978v8.476947
		c0,1.067001,0.868156,1.935157,1.935157,1.935157h8.476947c1.067001,0,1.935192-0.868155,1.935192-1.935157v-1.842482
		C12.351508,12.540718,11.967957,12.157381,11.495237,12.157381z"/>
</g>
</svg>
