<?xml version="1.0" encoding="UTF-8"?><svg id="a" xmlns="http://www.w3.org/2000/svg" viewBox="0 0 1000 299.209" fill="#ffffff"><defs><style>.b{fill:#0093d6;}.c{fill:#f5d800;}.d{fill:#ef861a;}</style></defs><path class="d" d="M182,54.529h84.218c15.057,0,27.265-12.207,27.265-27.265S281.275,0,266.218,0h-106.308c-12.717,0-23.71,8.796-26.552,21.147l-16.263,76.389H27.265c-15.057,0-27.265,12.203-27.265,27.261s12.207,27.265,27.265,27.265H161.235l20.765-97.532Z"/><path class="c" d="M243.015,128.103h84.218c15.057,0,27.265-12.207,27.265-27.265s-12.207-27.265-27.265-27.265H198.87l-20.761,97.536H88.279c-15.057,0-27.265,12.203-27.265,27.261s12.207,27.265,27.265,27.265H222.254l20.761-97.532Z"/><path class="b" d="M388.248,147.148h-128.363l-20.761,97.532h-89.83c-15.057,0-27.265,12.207-27.265,27.265s12.203,27.257,27.257,27.265h111.9c12.872,0,23.989-8.999,26.668-21.589l16.176-75.943h84.218c15.057,0,27.265-12.207,27.265-27.265s-12.207-27.265-27.265-27.265"/><path d="M524.644,204.583c34.134,0,55.572-14.158,62.442-45.793,11.447-54.326-54.74-39.966-48.499-69.312,1.25-6.663,6.456-13.115,14.779-13.115,7.495,0,9.576,7.288,7.702,16.028l-.832,3.538h36.216c6.659-31.846-4.581-45.793-38.298-45.793-32.678,0-52.245,16.442-58.696,46.417-11.029,52.658,52.662,38.091,46.418,67.437-1.668,8.12-7.495,14.365-15.404,14.365-7.495,0-11.865-4.581-9.158-17.278l.832-3.538h-37.466l-1.039,5.202c-6.659,30.807,8.948,41.84,41.004,41.84Zm136.942-2.916l63.692-148.614h-41.211l-39.548,111.984h-.414l8.327-111.984h-41.215l.418,148.614h49.952Zm78.038,2.912c13.115,0,27.476-3.327,35.388-16.024h.414l-1.875,13.111h26.23l17.067-80.759h-49.956l-5.413,26.226h13.74c-5.827,26.019-11.654,31.225-19.774,31.225-11.865,0-10.822-10.826-2.289-50.999,8.534-40.169,12.072-50.995,24.769-50.995,4.577,0,7.077,2.293,7.495,6.452,.621,3.956,0,9.783-1.461,17.278h37.466c7.495-36.009-8.948-49.956-36.423-49.956-45.793,0-61.196,27.476-71.811,77.221-10.404,49.124-12.904,77.221,26.433,77.221Zm168.795-102.82h.418l-8.327,99.908h42.457l57.033-148.614h-37.466l-32.26,102.821h-.418l6.663-102.821h-34.97l-35.802,102.821h-.414l10.201-102.821h-37.47l-6.241,148.614h42.457l34.138-99.908Z"/></svg>