<svg id="Layer_1" data-name="Layer 1" xmlns="http://www.w3.org/2000/svg" viewBox="0 0 826 210.15"><defs> 
<style media="all">.nav-logo-cls{fill:#707070}</style></defs><path class="nav-logo-cls" d="M435.71,79.06c-4.89-31.24-32.48-40.39-62.33-40.39-30.59,0-62,9.26-62,45.18,0,24.78,22.6,32.67,45.18,37.57,28.12,6,44.37,10.07,44.37,21.78,0,13.6-14.33,18-25.62,18-15.13,0-29.2-6.54-30-22.69,0-.33-.07-2.26-.07-2.26H308.07s0,2,.06,2.32C310.33,175,342.28,187,375,187c32.52,0,65-12,65-49,0-26.13-22.33-34.29-45.19-39.47-22.33-5.17-44.37-7.07-44.37-21,0-11.44,12.95-13.06,21.77-13.06,12.7,0,23.13,2.83,25.86,14.52Z" transform="translate(0 0)"></path><path class="nav-logo-cls" d="M485.51,122.08c1.11,24.58,13.27,35.78,35.11,35.78,15.76,0,28.49-9.57,31-18.3h34.57c-11.07,33.32-34.57,47.52-66.91,47.52-45.07,0-73-30.58-73-74.28,0-42.33,29.57-74.56,73-74.56,48.66,0,72.17,40.42,69.4,83.84ZM549.38,97.5c-3.59-19.66-12.18-30-31.25-30-24.88,0-32.07,19.1-32.62,30Z" transform="translate(0 0)"></path><path class="nav-logo-cls" d="M637.15,122.08c1.1,24.58,13.27,35.78,35.11,35.78,15.76,0,28.47-9.57,31-18.3h34.57c-11.07,33.32-34.57,47.52-66.92,47.52-45.06,0-73-30.58-73-74.28,0-42.33,29.58-74.56,73-74.56,48.67,0,72.17,40.42,69.4,83.84ZM701,97.5c-3.6-19.66-12.18-30-31.25-30-24.89,0-32.08,19.1-32.62,30Z" transform="translate(0 0)"></path> <path class="nav-logo-cls" d="M259.74,0H299V183.36H259.74Z" transform="translate(0 0)"></path> <path class="nav-logo-cls" d="M159.17,79.06H119.35l.1-.73c5.84-30.74,36.5-40.24,66.43-40.24,28.52,0,62.86,6.3,62.86,40.21v55.32l0,49.72H213.55l-2.48-13.68c-12.54,12.77-30.74,17.51-48.18,17.51-27.15,0-48.74-13.4-48.74-42.4,0-32,24.36-39.66,48.74-43,24.09-3.55,46.52-2.73,46.52-18.6,0-16.68-11.63-19.15-25.47-19.15-12.44,0-21.24,4.18-24.65,14.39Zm50.24,36v-.93c-6.64,5.75-20.49,6-32.67,8.2-12.19,2.46-23.27,6.58-23.27,20.79,0,14.5,11.35,18.06,24.09,18.06,30.75,0,31.85-24.08,31.85-32.55Z" transform="translate(0 0)"></path><path class="nav-logo-cls" d="M72.62,138.42c0,13.12,3.15,15.89,16.42,15.89a55.93,55.93,0,0,0,16.62-2.24v28.46c-20,5.74-32.14,4.33-34.43,4.2-21-1.13-38.07-8.08-38.07-33.43V91.63l0-1.49,0-11.09H0V70.63L63.64,0l9,.05-.07,51h33v28h-33Z" transform="translate(0 0)"></path><path class="nav-logo-cls" d="M762.45,210.15,826,139.58l-63.56,0Z" transform="translate(0 0)"></path></svg>